<?xml version="1.0" encoding="utf-8"?>
<!-- Generator: Adobe Illustrator 23.1.0, SVG Export Plug-In . SVG Version: 6.00 Build 0)  -->
<svg version="1.1" id="Layer_1" xmlns="http://www.w3.org/2000/svg" xmlns:xlink="http://www.w3.org/1999/xlink" x="0px" y="0px"
	 viewBox="0 0 135 17" style="enable-background:new 0 0 135 17;" xml:space="preserve">
<style type="text/css">
	.st0{fill:#01579B;}
</style>
<g>
	<path class="st0" d="M15.1,5.6h-4.4c-0.5-0.8-1.3-1.2-2.4-1.2c-2.1,0-3.3,1.4-3.3,3.7c0,2.5,1.3,3.9,3.7,3.9c1.4,0,2.5-0.7,3.1-2
		H7.5v-3h7.7v4c-0.9,2.2-3.2,4.6-7,4.6c-4.5,0-7.5-3.1-7.5-7.5c0-4.4,3-7.5,7.5-7.5C11.9,0.6,14.5,2.5,15.1,5.6z"/>
	<path class="st0" d="M22.8,0.7c3.7,0,5.5,2.1,5.5,4.7c0,1.9-1,3.6-3.3,4.3l3.3,5.8h-4.6l-2.9-5.5h-0.4v5.5h-4.1V0.7H22.8z
		 M22.5,4.2h-2v3.1h2c1.1,0,1.7-0.5,1.7-1.6C24.2,4.8,23.6,4.2,22.5,4.2z"/>
	<path class="st0" d="M36.6,15.7c-4.2,0-7.6-3.2-7.6-7.6c0-4.5,3.4-7.6,7.6-7.6c4.2,0,7.6,3.1,7.6,7.6
		C44.2,12.5,40.8,15.7,36.6,15.7z M36.6,11.9c2.1,0,3.4-1.5,3.4-3.8c0-2.3-1.3-3.8-3.4-3.8c-2.1,0-3.4,1.5-3.4,3.8
		C33.2,10.4,34.4,11.9,36.6,11.9z"/>
	<path class="st0" d="M45.2,0.7h4.1v8.6c0,1.5,0.7,2.5,2.2,2.5s2.3-1,2.3-2.5V0.7H58v8.6c0,4.2-2.9,6.4-6.5,6.4
		c-3.6,0-6.3-2.1-6.3-6.4V0.7z"/>
	<path class="st0" d="M65.6,10.5h-2v5h-4.1V0.7h6.2c3.7,0,5.5,2.1,5.5,4.9C71.2,8.3,69.4,10.5,65.6,10.5z M65.2,7.3
		c1.2,0,1.7-0.6,1.7-1.6c0-1-0.5-1.6-1.7-1.6h-1.6v3.2H65.2z"/>
	<path class="st0" d="M82.7,15.5h-7.3V0.7h7.1c3,0,4.9,1.4,4.9,3.8c0,1.8-1.1,3-2.5,3.4c1.8,0.4,2.8,1.9,2.8,3.6
		C87.7,14,85.9,15.5,82.7,15.5z M81.6,4h-2.1v2.6h2.1c1,0,1.6-0.4,1.6-1.3C83.1,4.5,82.6,4,81.6,4z M81.9,9.5h-2.4v2.7h2.4
		c1,0,1.6-0.4,1.6-1.3C83.5,10,82.9,9.5,81.9,9.5z"/>
	<path class="st0" d="M95.8,15.7c-4.2,0-7.6-3.2-7.6-7.6c0-4.5,3.4-7.6,7.6-7.6c4.2,0,7.6,3.1,7.6,7.6
		C103.4,12.5,100,15.7,95.8,15.7z M95.8,11.9c2.1,0,3.4-1.5,3.4-3.8c0-2.3-1.3-3.8-3.4-3.8c-2.1,0-3.4,1.5-3.4,3.8
		C92.4,10.4,93.7,11.9,95.8,11.9z"/>
	<path class="st0" d="M111.6,15.7c-4.2,0-7.6-3.2-7.6-7.6c0-4.5,3.4-7.6,7.6-7.6c4.2,0,7.6,3.1,7.6,7.6
		C119.2,12.5,115.8,15.7,111.6,15.7z M111.6,11.9c2.1,0,3.4-1.5,3.4-3.8c0-2.3-1.3-3.8-3.4-3.8c-2.1,0-3.4,1.5-3.4,3.8
		C108.2,10.4,109.5,11.9,111.6,11.9z"/>
	<path class="st0" d="M124.4,9.1v6.5h-4.1V0.7h4.1v6.4l4.6-6.4h4.7l-5.4,7.2l5.7,7.6h-5L124.4,9.1z"/>
</g>
</svg>
